<mxfile host="app.diagrams.net" modified="2024-06-17T08:47:21.151Z" agent="Mozilla/5.0 (Windows NT 10.0; Win64; x64) AppleWebKit/537.36 (KHTML, like Gecko) Chrome/123.0.0.0 Safari/537.36 OPR/109.0.0.0" etag="WxcUuzs4DjtHRwNOXyou" version="24.5.4" type="device">
  <diagram name="Page-1" id="7dSvqLLmZFYE4ecyOjEG">
    <mxGraphModel dx="1671" dy="758" grid="1" gridSize="10" guides="1" tooltips="1" connect="1" arrows="1" fold="1" page="1" pageScale="1" pageWidth="850" pageHeight="1100" math="0" shadow="0">
      <root>
        <mxCell id="0" />
        <mxCell id="1" parent="0" />
        <mxCell id="_zVrqFiz_bb8IfCAxKK6-1" value="" style="shape=line;html=1;strokeWidth=6;strokeColor=#ff0000;" parent="1" vertex="1">
          <mxGeometry x="215" y="350" width="745" height="10" as="geometry" />
        </mxCell>
        <mxCell id="_zVrqFiz_bb8IfCAxKK6-8" style="edgeStyle=orthogonalEdgeStyle;rounded=0;orthogonalLoop=1;jettySize=auto;html=1;entryX=0.5;entryY=0;entryDx=0;entryDy=0;" parent="1" source="_zVrqFiz_bb8IfCAxKK6-3" target="_zVrqFiz_bb8IfCAxKK6-7" edge="1">
          <mxGeometry relative="1" as="geometry" />
        </mxCell>
        <mxCell id="_zVrqFiz_bb8IfCAxKK6-3" value="" style="ellipse;html=1;shape=endState;fillColor=#000000;strokeColor=#ff0000;" parent="1" vertex="1">
          <mxGeometry x="395" y="220" width="30" height="30" as="geometry" />
        </mxCell>
        <mxCell id="_zVrqFiz_bb8IfCAxKK6-4" value="Program start" style="text;html=1;align=center;verticalAlign=middle;whiteSpace=wrap;rounded=0;" parent="1" vertex="1">
          <mxGeometry x="380" y="180" width="60" height="30" as="geometry" />
        </mxCell>
        <mxCell id="_zVrqFiz_bb8IfCAxKK6-9" style="edgeStyle=orthogonalEdgeStyle;rounded=0;orthogonalLoop=1;jettySize=auto;html=1;entryX=0.261;entryY=0.317;entryDx=0;entryDy=0;entryPerimeter=0;" parent="1" source="_zVrqFiz_bb8IfCAxKK6-7" target="_zVrqFiz_bb8IfCAxKK6-1" edge="1">
          <mxGeometry relative="1" as="geometry" />
        </mxCell>
        <mxCell id="_zVrqFiz_bb8IfCAxKK6-7" value="start button" style="rounded=1;whiteSpace=wrap;html=1;" parent="1" vertex="1">
          <mxGeometry x="375" y="270" width="70" height="30" as="geometry" />
        </mxCell>
        <mxCell id="_zVrqFiz_bb8IfCAxKK6-10" style="edgeStyle=orthogonalEdgeStyle;rounded=0;orthogonalLoop=1;jettySize=auto;html=1;" parent="1" edge="1">
          <mxGeometry relative="1" as="geometry">
            <mxPoint x="240" y="360" as="sourcePoint" />
            <mxPoint x="240" y="410" as="targetPoint" />
          </mxGeometry>
        </mxCell>
        <mxCell id="_zVrqFiz_bb8IfCAxKK6-15" style="edgeStyle=orthogonalEdgeStyle;rounded=0;orthogonalLoop=1;jettySize=auto;html=1;" parent="1" source="_zVrqFiz_bb8IfCAxKK6-11" edge="1">
          <mxGeometry relative="1" as="geometry">
            <mxPoint x="240" y="490" as="targetPoint" />
          </mxGeometry>
        </mxCell>
        <mxCell id="_zVrqFiz_bb8IfCAxKK6-11" value="Next button" style="rounded=1;whiteSpace=wrap;html=1;" parent="1" vertex="1">
          <mxGeometry x="200" y="410" width="80" height="40" as="geometry" />
        </mxCell>
        <mxCell id="_zVrqFiz_bb8IfCAxKK6-23" style="edgeStyle=orthogonalEdgeStyle;rounded=0;orthogonalLoop=1;jettySize=auto;html=1;entryX=0.5;entryY=0;entryDx=0;entryDy=0;" parent="1" source="_zVrqFiz_bb8IfCAxKK6-12" target="_zVrqFiz_bb8IfCAxKK6-18" edge="1">
          <mxGeometry relative="1" as="geometry">
            <Array as="points">
              <mxPoint x="145" y="730" />
            </Array>
          </mxGeometry>
        </mxCell>
        <mxCell id="_zVrqFiz_bb8IfCAxKK6-62" style="edgeStyle=orthogonalEdgeStyle;rounded=0;orthogonalLoop=1;jettySize=auto;html=1;entryX=0;entryY=0.5;entryDx=0;entryDy=0;" parent="1" source="_zVrqFiz_bb8IfCAxKK6-12" target="_zVrqFiz_bb8IfCAxKK6-36" edge="1">
          <mxGeometry relative="1" as="geometry">
            <Array as="points">
              <mxPoint x="473" y="730" />
              <mxPoint x="473" y="640" />
              <mxPoint x="580" y="640" />
              <mxPoint x="580" y="560" />
            </Array>
          </mxGeometry>
        </mxCell>
        <mxCell id="_zVrqFiz_bb8IfCAxKK6-12" value="Question == 14" style="rhombus;whiteSpace=wrap;html=1;" parent="1" vertex="1">
          <mxGeometry x="165" y="690" width="160" height="80" as="geometry" />
        </mxCell>
        <mxCell id="_zVrqFiz_bb8IfCAxKK6-16" value="Yes" style="text;html=1;align=center;verticalAlign=middle;whiteSpace=wrap;rounded=0;" parent="1" vertex="1">
          <mxGeometry x="115" y="690" width="60" height="30" as="geometry" />
        </mxCell>
        <mxCell id="_zVrqFiz_bb8IfCAxKK6-22" style="edgeStyle=orthogonalEdgeStyle;rounded=0;orthogonalLoop=1;jettySize=auto;html=1;" parent="1" source="_zVrqFiz_bb8IfCAxKK6-18" target="_zVrqFiz_bb8IfCAxKK6-19" edge="1">
          <mxGeometry relative="1" as="geometry" />
        </mxCell>
        <mxCell id="_zVrqFiz_bb8IfCAxKK6-18" value="Disable Description, checkmarks" style="rounded=1;whiteSpace=wrap;html=1;" parent="1" vertex="1">
          <mxGeometry x="100" y="800" width="90" height="50" as="geometry" />
        </mxCell>
        <mxCell id="_zVrqFiz_bb8IfCAxKK6-19" value="" style="shape=line;html=1;strokeWidth=6;strokeColor=#ff0000;" parent="1" vertex="1">
          <mxGeometry x="45" y="920" width="200" height="10" as="geometry" />
        </mxCell>
        <mxCell id="_zVrqFiz_bb8IfCAxKK6-24" style="edgeStyle=orthogonalEdgeStyle;rounded=0;orthogonalLoop=1;jettySize=auto;html=1;" parent="1" edge="1">
          <mxGeometry relative="1" as="geometry">
            <mxPoint x="75" y="930" as="sourcePoint" />
            <mxPoint x="75" y="1010" as="targetPoint" />
          </mxGeometry>
        </mxCell>
        <mxCell id="_zVrqFiz_bb8IfCAxKK6-25" style="edgeStyle=orthogonalEdgeStyle;rounded=0;orthogonalLoop=1;jettySize=auto;html=1;" parent="1" edge="1">
          <mxGeometry relative="1" as="geometry">
            <mxPoint x="220" y="930" as="sourcePoint" />
            <mxPoint x="220" y="1010" as="targetPoint" />
          </mxGeometry>
        </mxCell>
        <mxCell id="_zVrqFiz_bb8IfCAxKK6-28" style="edgeStyle=elbowEdgeStyle;rounded=0;orthogonalLoop=1;jettySize=auto;html=1;" parent="1" source="_zVrqFiz_bb8IfCAxKK6-26" edge="1">
          <mxGeometry relative="1" as="geometry">
            <mxPoint x="270" y="310" as="targetPoint" />
            <Array as="points">
              <mxPoint x="-80" y="670" />
            </Array>
          </mxGeometry>
        </mxCell>
        <mxCell id="_zVrqFiz_bb8IfCAxKK6-26" value="Retry" style="rounded=1;whiteSpace=wrap;html=1;" parent="1" vertex="1">
          <mxGeometry x="35" y="1010" width="80" height="40" as="geometry" />
        </mxCell>
        <mxCell id="_zVrqFiz_bb8IfCAxKK6-31" style="edgeStyle=orthogonalEdgeStyle;rounded=0;orthogonalLoop=1;jettySize=auto;html=1;" parent="1" source="_zVrqFiz_bb8IfCAxKK6-27" edge="1">
          <mxGeometry relative="1" as="geometry">
            <mxPoint x="220" y="1120" as="targetPoint" />
          </mxGeometry>
        </mxCell>
        <mxCell id="_zVrqFiz_bb8IfCAxKK6-27" value="Quit" style="rounded=1;whiteSpace=wrap;html=1;" parent="1" vertex="1">
          <mxGeometry x="185" y="1010" width="70" height="40" as="geometry" />
        </mxCell>
        <mxCell id="_zVrqFiz_bb8IfCAxKK6-29" value="" style="ellipse;html=1;shape=endState;fillColor=#000000;strokeColor=#ff0000;" parent="1" vertex="1">
          <mxGeometry x="205" y="1120" width="30" height="30" as="geometry" />
        </mxCell>
        <mxCell id="_zVrqFiz_bb8IfCAxKK6-32" value="TestProgram_Titovs.exe Exit" style="text;html=1;align=center;verticalAlign=middle;whiteSpace=wrap;rounded=0;" parent="1" vertex="1">
          <mxGeometry x="130" y="1160" width="180" height="30" as="geometry" />
        </mxCell>
        <mxCell id="_zVrqFiz_bb8IfCAxKK6-34" value="QuestionsScene" style="text;html=1;align=center;verticalAlign=middle;whiteSpace=wrap;rounded=0;" parent="1" vertex="1">
          <mxGeometry x="195" y="320" width="60" height="30" as="geometry" />
        </mxCell>
        <mxCell id="_zVrqFiz_bb8IfCAxKK6-59" style="edgeStyle=orthogonalEdgeStyle;rounded=0;orthogonalLoop=1;jettySize=auto;html=1;" parent="1" source="_zVrqFiz_bb8IfCAxKK6-36" edge="1">
          <mxGeometry relative="1" as="geometry">
            <mxPoint x="680" y="620" as="targetPoint" />
          </mxGeometry>
        </mxCell>
        <mxCell id="_zVrqFiz_bb8IfCAxKK6-36" value="Question++" style="rounded=1;whiteSpace=wrap;html=1;" parent="1" vertex="1">
          <mxGeometry x="620" y="530" width="120" height="60" as="geometry" />
        </mxCell>
        <mxCell id="_zVrqFiz_bb8IfCAxKK6-37" value="No" style="text;html=1;align=center;verticalAlign=middle;whiteSpace=wrap;rounded=0;" parent="1" vertex="1">
          <mxGeometry x="320" y="690" width="60" height="30" as="geometry" />
        </mxCell>
        <mxCell id="_zVrqFiz_bb8IfCAxKK6-55" style="edgeStyle=orthogonalEdgeStyle;rounded=0;orthogonalLoop=1;jettySize=auto;html=1;" parent="1" source="_zVrqFiz_bb8IfCAxKK6-39" edge="1">
          <mxGeometry relative="1" as="geometry">
            <mxPoint x="790" y="390" as="targetPoint" />
          </mxGeometry>
        </mxCell>
        <mxCell id="_zVrqFiz_bb8IfCAxKK6-39" value="Vizualize task, description, answers" style="rounded=1;whiteSpace=wrap;html=1;" parent="1" vertex="1">
          <mxGeometry x="620" y="730" width="120" height="60" as="geometry" />
        </mxCell>
        <mxCell id="_zVrqFiz_bb8IfCAxKK6-43" value="Answer == true" style="rhombus;whiteSpace=wrap;html=1;" parent="1" vertex="1">
          <mxGeometry x="170" y="490" width="140" height="80" as="geometry" />
        </mxCell>
        <mxCell id="_zVrqFiz_bb8IfCAxKK6-45" value="Checked answer = true" style="rounded=1;whiteSpace=wrap;html=1;" parent="1" vertex="1">
          <mxGeometry x="205" y="620" width="80" height="40" as="geometry" />
        </mxCell>
        <mxCell id="_zVrqFiz_bb8IfCAxKK6-46" style="edgeStyle=orthogonalEdgeStyle;rounded=0;orthogonalLoop=1;jettySize=auto;html=1;entryX=0.5;entryY=-0.025;entryDx=0;entryDy=0;entryPerimeter=0;" parent="1" source="_zVrqFiz_bb8IfCAxKK6-45" target="_zVrqFiz_bb8IfCAxKK6-12" edge="1">
          <mxGeometry relative="1" as="geometry" />
        </mxCell>
        <mxCell id="_zVrqFiz_bb8IfCAxKK6-52" style="edgeStyle=orthogonalEdgeStyle;rounded=0;orthogonalLoop=1;jettySize=auto;html=1;entryX=1;entryY=0.5;entryDx=0;entryDy=0;" parent="1" source="_zVrqFiz_bb8IfCAxKK6-47" target="_zVrqFiz_bb8IfCAxKK6-45" edge="1">
          <mxGeometry relative="1" as="geometry">
            <Array as="points">
              <mxPoint x="300" y="580" />
              <mxPoint x="300" y="640" />
            </Array>
          </mxGeometry>
        </mxCell>
        <mxCell id="_zVrqFiz_bb8IfCAxKK6-47" value="CorrectAnswers[Question] = true" style="rounded=1;whiteSpace=wrap;html=1;" parent="1" vertex="1">
          <mxGeometry x="320" y="560" width="210" height="40" as="geometry" />
        </mxCell>
        <mxCell id="_zVrqFiz_bb8IfCAxKK6-53" style="edgeStyle=orthogonalEdgeStyle;rounded=0;orthogonalLoop=1;jettySize=auto;html=1;entryX=0;entryY=0.5;entryDx=0;entryDy=0;" parent="1" source="_zVrqFiz_bb8IfCAxKK6-49" target="_zVrqFiz_bb8IfCAxKK6-45" edge="1">
          <mxGeometry relative="1" as="geometry" />
        </mxCell>
        <mxCell id="_zVrqFiz_bb8IfCAxKK6-49" value="CorrectAnswers[Question] = false" style="rounded=1;whiteSpace=wrap;html=1;" parent="1" vertex="1">
          <mxGeometry x="-60" y="560" width="210" height="40" as="geometry" />
        </mxCell>
        <mxCell id="_zVrqFiz_bb8IfCAxKK6-50" style="edgeStyle=orthogonalEdgeStyle;rounded=0;orthogonalLoop=1;jettySize=auto;html=1;entryX=0.568;entryY=-0.004;entryDx=0;entryDy=0;entryPerimeter=0;" parent="1" source="_zVrqFiz_bb8IfCAxKK6-43" target="_zVrqFiz_bb8IfCAxKK6-47" edge="1">
          <mxGeometry relative="1" as="geometry" />
        </mxCell>
        <mxCell id="_zVrqFiz_bb8IfCAxKK6-51" style="edgeStyle=orthogonalEdgeStyle;rounded=0;orthogonalLoop=1;jettySize=auto;html=1;entryX=0.384;entryY=-0.004;entryDx=0;entryDy=0;entryPerimeter=0;" parent="1" source="_zVrqFiz_bb8IfCAxKK6-43" target="_zVrqFiz_bb8IfCAxKK6-49" edge="1">
          <mxGeometry relative="1" as="geometry" />
        </mxCell>
        <mxCell id="_zVrqFiz_bb8IfCAxKK6-61" style="edgeStyle=orthogonalEdgeStyle;rounded=0;orthogonalLoop=1;jettySize=auto;html=1;entryX=0.5;entryY=0;entryDx=0;entryDy=0;" parent="1" source="_zVrqFiz_bb8IfCAxKK6-54" target="_zVrqFiz_bb8IfCAxKK6-36" edge="1">
          <mxGeometry relative="1" as="geometry" />
        </mxCell>
        <mxCell id="_zVrqFiz_bb8IfCAxKK6-54" value="Choose questions button" style="rounded=1;whiteSpace=wrap;html=1;" parent="1" vertex="1">
          <mxGeometry x="630" y="410" width="100" height="40" as="geometry" />
        </mxCell>
        <mxCell id="_zVrqFiz_bb8IfCAxKK6-56" style="edgeStyle=orthogonalEdgeStyle;rounded=0;orthogonalLoop=1;jettySize=auto;html=1;" parent="1" edge="1">
          <mxGeometry relative="1" as="geometry">
            <mxPoint x="679.8" y="360" as="sourcePoint" />
            <mxPoint x="679.8" y="410" as="targetPoint" />
          </mxGeometry>
        </mxCell>
        <mxCell id="_zVrqFiz_bb8IfCAxKK6-60" style="edgeStyle=orthogonalEdgeStyle;rounded=0;orthogonalLoop=1;jettySize=auto;html=1;entryX=0.5;entryY=0;entryDx=0;entryDy=0;" parent="1" source="_zVrqFiz_bb8IfCAxKK6-58" target="_zVrqFiz_bb8IfCAxKK6-39" edge="1">
          <mxGeometry relative="1" as="geometry" />
        </mxCell>
        <mxCell id="_zVrqFiz_bb8IfCAxKK6-58" value="Disable Toggle answers" style="rounded=1;whiteSpace=wrap;html=1;" parent="1" vertex="1">
          <mxGeometry x="620" y="625" width="120" height="60" as="geometry" />
        </mxCell>
        <mxCell id="_zVrqFiz_bb8IfCAxKK6-63" style="edgeStyle=orthogonalEdgeStyle;rounded=0;orthogonalLoop=1;jettySize=auto;html=1;" parent="1" target="_zVrqFiz_bb8IfCAxKK6-64" edge="1">
          <mxGeometry relative="1" as="geometry">
            <mxPoint x="940" y="360" as="sourcePoint" />
            <mxPoint x="940" y="410" as="targetPoint" />
          </mxGeometry>
        </mxCell>
        <mxCell id="_zVrqFiz_bb8IfCAxKK6-64" value="" style="ellipse;html=1;shape=endState;fillColor=#000000;strokeColor=#ff0000;" parent="1" vertex="1">
          <mxGeometry x="925" y="440" width="30" height="30" as="geometry" />
        </mxCell>
        <mxCell id="_zVrqFiz_bb8IfCAxKK6-65" value="TestProgram_Titovs.exe Exit" style="text;html=1;align=center;verticalAlign=middle;whiteSpace=wrap;rounded=0;" parent="1" vertex="1">
          <mxGeometry x="850" y="490" width="180" height="30" as="geometry" />
        </mxCell>
        <mxCell id="Tfo5bfT9uyd3VSblKl9s-1" value="Show result and 2 buttons" style="rounded=1;whiteSpace=wrap;html=1;" vertex="1" parent="1">
          <mxGeometry x="100" y="850" width="90" height="50" as="geometry" />
        </mxCell>
      </root>
    </mxGraphModel>
  </diagram>
</mxfile>
